<?xml version="1.0" encoding="UTF-8" standalone="no"?>
<!DOCTYPE svg PUBLIC "-//W3C//DTD SVG 1.1//EN" "http://www.w3.org/Graphics/SVG/1.1/DTD/svg11.dtd">
<!-- Created with Vectornator (http://vectornator.io/) -->
<svg height="100%" stroke-miterlimit="10" style="fill-rule:nonzero;clip-rule:evenodd;stroke-linecap:round;stroke-linejoin:round;" version="1.1" viewBox="0 0 216.63 171.15" width="100%" xml:space="preserve" xmlns="http://www.w3.org/2000/svg" xmlns:vectornator="http://vectornator.io" xmlns:xlink="http://www.w3.org/1999/xlink">
<defs/>
<clipPath id="ArtboardFrame">
<rect height="171.15" width="216.63" x="0" y="0"/>
</clipPath>
<g clip-path="url(#ArtboardFrame)" id="Untitled" vectornator:layerName="Untitled">
<g opacity="1">
<path d="M108.411 136.24C109.971 136.24 117.201 133.66 120.021 132.18C135.141 124.2 148.35 113.38 156.95 98.43C163.86 86.41 164.29 71.59 165.42 58.13C166.88 40.72 166.74 23.29 166.47 5.82C166.45 4.56 141.46 1.81 138.901 1.58C128.771 0.63 115.201 0 108.411 0C101.631 0 88.061 0.63 77.9211 1.58C75.3511 1.81 50.3714 4.57 50.3414 5.82C50.0614 23.3 49.9314 40.72 51.3914 58.13C52.5214 71.6 52.9514 86.42 59.8613 98.43C68.4612 113.38 81.6711 124.2 96.8009 132.18C99.6209 133.66 106.851 136.24 108.411 136.24Z" fill="#750e6d" fill-rule="nonzero" opacity="1" stroke="#000000" stroke-linecap="round" stroke-linejoin="miter" stroke-width="0"/>
<path d="M142.54 72.12C142.6 72.12 142.65 72.13 142.71 72.14C142.651 72.14 142.6 72.12 142.54 72.12L142.54 72.12ZM139.261 74.22C139.371 74.26 139.461 74.3 139.561 74.34C139.471 74.29 139.381 74.24 139.261 74.2C139.261 74.2 139.261 74.21 139.261 74.22ZM158.79 42.35C158.79 42.35 158.85 41.48 158.89 41.43C159.53 41.22 162.36 40.09 162.89 36.5C162.96 35.95 162.99 35.33 162.93 34.66L162.77 34.8C162.21 35.33 160.51 36.94 159.56 36.73C159.32 36.68 159.14 36.51 159.03 36.22C159.04 32.65 158.75 29.81 158.38 26.14C159.4 25.58 161.54 24 161.53 20.62C161.52 20.17 161.48 19.69 161.39 19.18L161.22 19.37C160.66 20.01 159.19 21.71 158.32 21.6C158.11 21.58 157.95 21.45 157.83 21.22L157.79 20.74C157.08 13.16 155.53 9.42002 152.42 7.82002C152.42 7.82002 152.23 7.75002 152.23 7.73002C152.23 7.79002 152.39 8.02002 152.54 8.25002C152.99 8.92002 153.75 10.04 154.04 11.37C154.54 13.63 154.72 15.45 154.72 16.93C154.72 18.65 154.48 19.93 154.22 20.95C153.81 21.7 153.22 22.17 152.48 22.34C150.77 22.75 148.82 20.85 148.17 19.31C148.15 19.26 148.12 19.21 148.08 19.21C147.95 19.21 147.7 19.62 147.58 19.91C147.02 21.93 147.71 24.48 149.08 25.46C149.58 25.82 150.39 26.12 151.36 25.46C151.86 25.12 152.23 25 152.49 25.07C152.63 25.11 152.73 25.21 152.79 25.4C152.14 27.21 151.41 29.03 150.59 30.83C150.13 31.25 149.6 31.47 149.04 31.51C147.11 31.63 145.5 29.26 145.12 27.57C145.11 27.5 145.08 27.46 145.04 27.45C144.9 27.42 144.57 27.81 144.38 28.09C143.41 30.09 143.63 32.86 144.86 34.13C145.32 34.61 146.11 35.06 147.26 34.55C147.85 34.28 148.26 34.22 148.49 34.34C148.6 34.4 148.67 34.51 148.69 34.68C147.75 36.45 146.71 38.21 145.58 39.93C145.16 40.21 144.7 40.34 144.17 40.33C142.12 40.32 140.771 37.97 140.631 36.35C140.621 36.28 140.611 36.24 140.571 36.23C140.431 36.18 140.021 36.56 139.771 36.84C138.501 38.74 138.321 41.37 139.371 42.7C139.951 43.45 140.851 43.65 141.9 43.26C142.54 43.03 142.93 42.97 143.11 43.09C143.18 43.14 143.22 43.21 143.21 43.34C142.12 44.82 140.951 46.28 139.721 47.7C138.911 48.24 138.101 48.43 137.251 48.3C135.091 47.97 133.751 44.87 133.751 42.8C133.751 42.7 133.731 42.65 133.681 42.63C133.511 42.56 133.021 42.95 132.751 43.2C131.121 45.26 130.671 48.5 131.771 50.28C132.181 50.94 132.971 51.67 134.441 51.37C135.211 51.21 135.661 51.23 135.801 51.43C135.891 51.55 135.861 51.72 135.721 51.96L132.181 55.24C131.301 55.8 129.951 56.36 128.531 55.84C126.151 54.99 125.311 51.18 125.751 48.83C125.771 48.72 125.761 48.64 125.711 48.61C125.531 48.49 124.881 48.82 124.521 49.06C122.231 51.05 121.021 54.66 121.881 56.92C122.211 57.77 122.951 58.77 124.681 58.75C125.641 58.73 126.151 58.87 126.261 59.16C126.351 59.4 126.141 59.72 125.611 60.15C125.131 60.42 124.581 60.78 124.121 61.33C123.071 62.61 122.591 63.65 122.471 64.93L122.371 66.23C122.301 67.24 122.231 68.28 122.011 69.29C121.821 70.25 121.521 71.1 121.121 71.82C118.911 75.84 113.751 77.94 108.331 78.73L108.331 71.19C114.931 70.99 117.771 68.11 117.771 61.67C117.771 56.18 115.791 53.8 111.151 53.71C110.221 53.69 109.261 53.84 108.331 54.15L108.331 49.95C111.641 48.45 115.371 46.76 119.281 45.77C128.251 43.49 135.471 38.53 137.981 33.24C138.331 32.48 138.581 31.7 138.741 30.91C138.261 31.22 132.271 35.02 127.791 35.98L127.181 36.08C126.571 36.2 125.951 36.32 125.621 36.05C125.461 35.92 125.391 35.73 125.391 35.46C125.391 33.04 126.731 31.14 129.151 30.12L129.391 30.02C134.821 27.72 139.051 25.92 141.091 23.1C141.62 22.35 142.01 21.54 142.21 20.62C141.75 20.86 135.461 24.19 131.411 24.76L131.191 24.8C130.701 24.88 129.891 25.03 129.501 24.61C129.271 24.37 129.231 23.97 129.371 23.43C129.831 21.59 130.611 20.5 132.071 19.66C133.661 18.75 135.371 17.98 137.031 17.25C139.841 16 142.34 14.88 143.6 13.39C143.67 13.31 143.74 13.23 143.8 13.14C143.81 13.12 143.83 13.09 143.84 13.07C144.07 12.73 144.23 12.36 144.32 11.98L138.421 13.84L137.261 14.2C135.581 14.73 133.831 15.28 133.271 14.73C133.061 14.52 133.031 14.19 133.171 13.71C133.471 12.69 133.731 12.12 134.211 11.44C136.421 8.30002 140.901 4.97002 146.26 5.92002C147.15 6.09002 147.61 6.02002 147.63 5.92002C147.65 5.86002 147.49 5.69002 146.79 5.43002C142.74 3.96002 138.961 4.09002 135.571 5.83002C129.361 9.01002 124.241 17.58 120.351 31.3C118.131 39.14 113.301 41.98 108.321 44.21L108.321 26.71C110.131 25.99 111.701 24.97 113.041 23.63C116.821 19.85 118.171 15.13 116.631 11.01C115.391 7.68002 112.441 5.37002 109.121 5.13002C108.841 5.11002 108.581 5.10002 108.321 5.10002L108.321 2.57002C102.101 2.57002 89.221 3.15002 79.1811 4.08002C75.5711 4.42002 52.8314 7.03002 52.8214 8.12002C52.7214 14.05 52.6514 19.94 52.6514 25.8C52.6514 36.72 52.9114 47.55 53.8214 58.42L54.1614 62.65C55.0813 74.55 56.0413 86.85 61.9413 97.15C69.4112 110.2 81.3111 121.12 97.2909 129.59C98.2809 130.11 102.871 132.47 106.701 133.3C106.721 133.3 106.741 133.31 106.751 133.31C106.921 133.35 107.081 133.37 107.251 133.4C107.621 133.46 107.981 133.52 108.321 133.54L108.321 114.79C113.651 114.87 121.921 114.93 124.121 114.17C126.241 113.44 127.601 111.81 127.951 109.6C128.361 107.04 127.321 104.16 125.491 102.77C125.241 102.58 124.881 102.55 124.781 102.67C124.711 102.76 124.751 102.85 124.881 103.08C125.081 103.44 125.411 104.03 125.411 105.24C125.411 106.35 125.021 107.27 124.261 107.98C122.191 109.91 117.981 109.65 117.941 109.65L113.081 109.6L108.361 109.6C108.421 109.59 108.471 109.56 108.521 109.55L108.341 109.55C111.081 108.92 113.021 106.93 113.841 105.42C115.941 101.61 114.181 99.09 113.621 98.36C113.521 98.25 113.461 98.19 113.461 98.19C113.471 98.19 113.481 98.19 113.491 98.19C113.471 98.16 113.461 98.15 113.461 98.14C113.791 98.14 114.101 98.13 114.411 98.11C114.111 98.13 113.821 98.15 113.501 98.15C113.501 98.15 113.511 98.16 113.541 98.19C114.781 98.19 115.901 98.06 116.931 97.82C116.181 97.98 115.351 98.06 114.491 98.11C124.581 97.53 126.721 88.42 127.881 83.45L128.071 82.63C128.431 81.15 129.371 78.56 131.591 77.87C133.011 77.42 133.951 76.89 134.631 76.49L135.451 76.06C135.451 76.06 135.731 75.95 135.751 75.94C137.021 75.98 137.001 77.05 136.971 77.76C136.961 78.05 136.951 78.33 137.051 78.39C137.101 78.42 137.201 78.39 137.341 78.3C138.441 77.62 138.981 75.59 139.121 74.43C139.131 74.35 139.131 74.25 139.141 74.18L139.151 74.18C139.161 74.16 139.161 74.14 139.161 74.13C140.541 74.62 140.671 75.44 140.741 75.87C140.751 75.99 140.771 76.1 140.811 76.11C140.851 76.13 140.971 76.06 141.161 75.9C142.17 75.09 142.39 73.22 142.42 72.13C142.42 72.12 142.42 72.1 142.42 72.09L142.42 72.09C142.42 72.07 142.42 72.05 142.42 72.04C144.12 72.16 144.29 73.13 144.37 73.59C144.39 73.69 144.41 73.82 144.44 73.83C144.45 73.84 144.51 73.83 144.72 73.61C145.6 72.68 145.6 70.7 145.57 69.84C145.56 69.8 145.56 69.76 145.56 69.73C145.57 69.73 145.57 69.73 145.57 69.73C145.57 69.71 145.57 69.69 145.57 69.68C146.67 69.78 146.92 70.6 147.07 71.1C147.12 71.27 147.17 71.44 147.23 71.45C147.26 71.45 147.33 71.43 147.49 71.23C148.49 69.94 148.44 68.01 148.28 67.28C148.26 67.22 148.24 67.16 148.22 67.12L148.24 67.12C148.24 67.1 148.23 67.08 148.23 67.06C149.36 67.13 149.61 67.86 149.76 68.29C149.81 68.43 149.86 68.57 149.91 68.57C149.95 68.58 150.02 68.54 150.2 68.31C151 67.29 150.94 65.31 150.72 64.26C152.2 62.51 153.13 61.01 153.39 59.92C153.59 59.1 153.71 58.99 153.81 59C153.98 59.02 154.03 59.48 154.04 59.76C153.81 62.41 153.25 65.82 152.45 69.33C152.44 69.35 152.44 69.37 152.44 69.39C152.44 69.42 152.43 69.44 152.43 69.47C152.32 69.96 152.21 70.45 152.1 70.95C152.09 70.94 152.08 70.94 152.08 70.93C152.07 70.95 152.07 70.97 152.07 70.99C151.57 70.52 150.3 70.37 150.02 70.66C149.88 70.8 150.03 71.01 150.18 71.16C150.72 71.73 151.02 72.79 151.06 73.76C151.07 73.9 151.08 74.04 151.09 74.17C151.08 74.16 151.08 74.16 151.07 74.16C151.07 74.18 151.07 74.2 151.07 74.22C150.47 73.9 149.47 73.83 149.27 74.1C149.16 74.23 149.31 74.44 149.45 74.58C150.09 75.24 150.31 76.63 150.2 77.66C150.19 77.84 150.18 78 150.15 78.14C150.14 78.13 150.14 78.13 150.12 78.12C150.12 78.14 150.12 78.16 150.11 78.18C149.62 77.71 148.35 77.55 148.06 77.84C147.92 77.98 148.07 78.19 148.22 78.35C148.78 78.93 148.92 80.5 148.81 81.54C148.8 81.72 148.78 81.89 148.76 82.03C148.75 82.02 148.74 82.02 148.73 82.01C148.73 82.03 148.72 82.05 148.72 82.07C148.15 81.55 147.18 81.27 146.96 81.46C146.86 81.54 146.91 81.74 147.09 82C147.81 83.06 147.58 85.02 147.36 85.75C144.12 92.95 140.511 96.64 136.631 96.72C133.471 96.78 131.781 93.96 131.591 91.93C131.311 89 134.101 87.05 135.791 86.36C137.011 85.86 137.781 86.55 138.051 86.87C139.041 88.06 138.921 88.88 138.641 89.36C138.271 89.99 137.421 90.31 136.871 90.2C135.941 90.03 135.191 90.38 134.871 91.15C134.571 91.87 134.771 92.69 135.341 93.09C136.271 93.74 137.481 93.79 138.751 93.22C140.351 92.5 141.71 90.95 141.87 89.67C142.13 88.55 141.7 86.3 140.831 85.38C138.851 82.68 136.351 81.89 134.161 83.25C130.251 85.67 128.051 88.43 127.821 91.23C127.611 93.78 128.991 96.4 131.941 98.98C135.441 102.05 141.111 100.16 143.64 97.45C143.64 97.45 143.94 97.23 143.99 97.23C144.65 97.48 147.75 98.41 150.52 95.7C150.86 95.36 151.2 94.96 151.53 94.5L151.27 94.52C150.44 94.61 148.24 94.84 147.71 94.12C147.57 93.92 147.55 93.67 147.68 93.37C149.29 91.18 150.75 88.39 152.08 85.04C152.75 85 155.79 84.61 157.2 81.26C157.41 80.74 157.58 80.16 157.7 79.5L157.47 79.62C156.69 80.06 154.62 81.24 153.96 80.72C153.73 80.55 153.69 80.21 153.83 79.72C154.61 77.03 155.31 74.04 155.96 70.79C156.91 70.64 159.78 69.87 160.66 66.15C160.76 65.7 160.84 65.21 160.87 64.67L160.65 64.81C159.93 65.3 158.03 66.59 157.18 66.23C156.96 66.14 156.83 65.95 156.78 65.65C157.21 62.77 157.59 59.66 157.93 56.34C158.37 56.21 162.11 54.98 162.11 50.19C162.11 50.03 162.1 49.86 162.1 49.68C162.04 49.73 161.97 49.79 161.97 49.79C161.33 50.37 159.64 51.92 158.76 51.69C158.54 51.64 158.39 51.48 158.3 51.21L158.68 43.51L158.79 42.35ZM108.361 7.72001C111.331 8.77001 112.951 11.2 112.701 14.31C112.461 17.3 110.511 19.98 108.361 20.31L108.361 7.72001ZM108.361 56.73C108.711 56.69 109.091 56.67 109.521 56.67C112.441 56.67 113.741 58.05 113.741 61.13C113.741 63.34 113.071 65.6 108.361 65.82C108.361 65.82 108.361 56.73 108.361 56.73ZM122.271 80.66L122.271 80.66C120.371 83.82 117.991 85.78 111.951 85.78C111.951 85.78 110.401 85.78 108.361 85.77L108.361 82.46L111.591 82.46C116.531 82.46 119.901 81.8 121.341 80.54C122.001 79.96 122.201 79.98 122.291 80.05C122.461 80.17 122.311 80.58 122.271 80.66ZM155.25 32.56L155.15 34C153.8 54.74 147.37 62.22 141.25 66.81L141.03 66.98C139.101 68.42 136.911 70.06 132.911 71.39L132.781 71.43C132.031 71.67 129.721 72.41 129.111 73.46C128.521 74.47 128.351 74.55 128.241 74.5C127.991 74.36 128.471 72.99 128.641 72.66C129.081 71.81 129.851 71.34 131.291 70.67C134.041 69.38 134.401 67.74 134.371 66.88C134.331 65.66 133.481 64.49 132.321 64.05C131.431 63.71 130.571 63.89 130.021 64.52C130.261 64.63 130.901 64.9 131.001 65.92C131.141 67.47 130.331 68.13 129.591 68.21C128.711 68.31 127.711 67.71 127.541 66.53C127.221 64.34 128.381 62.93 129.121 62.44C130.021 61.84 130.581 61.65 131.241 61.42C131.241 61.42 132.381 60.99 132.391 60.99C134.221 60.67 135.491 61.67 136.171 62.21C136.421 62.41 136.641 62.58 136.731 62.55L136.821 62.45C137.081 61.91 136.711 59.78 136.261 58.64L136.301 58.53L136.361 58.52C138.041 58.29 138.901 59.42 139.411 60.09C139.581 60.32 139.751 60.53 139.821 60.5C139.861 60.48 139.891 60.44 139.921 60.37C140.141 59.72 139.551 57.38 139.031 56.28C139.011 56.25 139.001 56.22 138.981 56.19C138.981 56.19 138.981 56.19 138.991 56.19C138.981 56.17 138.981 56.15 138.971 56.14C140.68 55.64 141.73 56.58 142.29 57.09C142.5 57.28 142.68 57.44 142.76 57.4L142.84 57.27C143 56.65 142.24 54.47 141.6 53.39C141.6 53.39 141.92 53.04 141.94 53.03C143.57 52.39 144.63 53.05 145.26 53.44C145.5 53.59 145.69 53.7 145.78 53.66L145.86 53.52C146 52.9 145.2 50.91 144.55 49.96C144.55 49.96 144.87 49.56 144.89 49.55C146.2 49.11 147.22 49.44 147.83 49.63C148.08 49.71 148.28 49.78 148.36 49.73C148.4 49.71 148.43 49.66 148.44 49.58C148.52 49 147.75 47.21 147.16 46.56C147.16 46.56 147.44 46.17 147.46 46.15C148.68 45.72 149.62 46.03 150.18 46.22L150.66 46.32C150.71 46.29 150.73 46.21 150.73 46.09C150.74 45.38 149.98 43.62 149.53 43.19C149.52 43.19 149.52 43.18 149.51 43.18L149.51 43.18C149.5 43.17 149.49 43.15 149.47 43.14C150.65 42.16 151.76 42.22 152.36 42.25L152.81 42.23C152.84 42.2 152.85 42.16 152.85 42.1C152.83 41.63 151.97 40.38 151.38 39.9C152.79 37.26 153.8 34.79 154.36 32.57C155.07 29.75 155.19 29.78 155.29 29.79C155.44 29.81 155.42 30.37 155.25 32.56ZM139.031 56.18C139.111 56.16 139.191 56.14 139.271 56.12C139.191 56.14 139.111 56.14 139.031 56.16C139.021 56.16 139.021 56.17 139.031 56.18ZM149.55 43.14C149.71 43.01 149.87 42.9 150.03 42.81C149.87 42.9 149.7 43 149.53 43.13C149.54 43.13 149.54 43.14 149.55 43.14ZM149.98 78C150.04 78.04 150.1 78.09 150.15 78.15C150.15 78.14 150.15 78.13 150.15 78.12C150.1 78.07 150.04 78.03 149.98 78ZM142.25 20.56C142.25 20.56 142.09 20.65 141.83 20.78C142.04 20.68 142.18 20.62 142.24 20.59C142.25 20.58 142.25 20.57 142.25 20.56ZM144.36 11.93C144.36 11.92 144.37 11.92 144.37 11.91C144.37 11.91 144.31 11.93 144.2 11.97C144.27 11.96 144.32 11.94 144.36 11.93ZM138.781 30.86C138.781 30.86 138.611 30.97 138.341 31.14C138.561 31.02 138.701 30.93 138.771 30.9C138.771 30.89 138.781 30.87 138.781 30.86ZM109.921 109.08C109.451 109.28 108.951 109.45 108.411 109.55L108.591 109.55C109.051 109.43 109.501 109.27 109.921 109.08ZM148.75 67.2C148.62 67.15 148.49 67.11 148.32 67.09C148.33 67.1 148.33 67.11 148.33 67.12C148.49 67.14 148.63 67.17 148.75 67.2ZM148.58 81.86C148.64 81.92 148.71 81.97 148.76 82.03C148.76 82.02 148.76 82.01 148.76 82C148.71 81.96 148.65 81.91 148.58 81.86ZM150.89 74.07C150.96 74.1 151.02 74.14 151.08 74.18C151.08 74.18 151.08 74.16 151.08 74.15C151.02 74.13 150.96 74.1 150.89 74.07ZM151.94 70.81C152 70.85 152.06 70.9 152.1 70.95C152.1 70.94 152.1 70.94 152.11 70.93C152.06 70.88 152 70.84 151.94 70.81ZM145.67 69.73L145.67 69.74C145.74 69.75 145.8 69.76 145.87 69.77C145.81 69.76 145.74 69.74 145.67 69.73Z" fill="#e7b000" fill-rule="nonzero" opacity="1" stroke="#000000" stroke-linecap="round" stroke-linejoin="miter" stroke-width="0"/>
<path d="M106.541 19.81C105.991 19.26 106.041 16.76 106.051 16.73C106.051 13.51 103.361 12.37 101.051 12.37C98.5909 12.37 96.0409 13.67 96.0409 15.84L96.0609 24.04C96.0609 24.47 95.9109 24.83 95.641 25.06C95.401 25.27 95.061 25.38 94.691 25.38C93.931 25.38 93.151 24.91 93.151 24.13L93.151 19.72C93.151 14.7 87.541 13.95 84.1911 13.95C79.4011 13.95 74.3112 16.09 74.3112 20.06L74.3112 22.26L74.3112 40.32C74.3412 41.4 73.6512 42.19 73.0412 42.53C72.5212 42.83 71.9712 42.86 71.5912 42.62C71.2612 42.41 70.8812 41.89 70.9912 40.64C71.0012 40.48 70.9312 40.35 70.8012 40.32C70.6312 40.28 70.3712 40.41 70.1712 40.91C69.5912 42.41 69.6312 43.79 70.2712 45.02C71.1012 46.6 72.7412 47.49 73.6412 47.71L73.6012 50.51C73.5912 50.51 73.5812 50.51 73.5712 50.51C70.3812 50.45 66.5412 49.23 66.5412 43.43L66.5412 15.5C66.5412 11.23 64.7813 9.79001 63.2913 9.33001C60.5613 8.48001 56.9813 10.33 55.4913 12.51C53.9114 14.81 54.3714 16.88 55.3313 18.06C56.4113 19.39 58.2313 19.84 59.8413 19.16C59.8813 19.15 60.1713 18.95 60.1513 18.76C60.1413 18.64 60.0213 18.56 59.7913 18.53C58.6913 18.36 58.0413 17.62 58.0413 16.56C58.0413 15.4 59.0613 14.41 60.2813 14.41C61.4813 14.41 62.4613 15.38 62.4613 16.56L62.4613 20.65L62.4813 44.66C59.2313 44.61 58.3513 47.25 58.3513 48.82C58.3513 51.28 60.0713 52.2 60.1413 52.24C60.2113 52.28 60.3813 52.27 60.4913 52.17C60.5713 52.09 60.6413 51.93 60.4913 51.64C60.0813 50.83 60.0713 50.12 60.4413 49.59C60.9313 48.9 61.9813 48.66 62.7713 48.77C63.2613 48.84 63.6113 49.04 63.7113 49.32C64.9113 52.7 68.0012 54.42 73.1912 54.57C73.3012 54.57 73.4912 54.68 73.6812 54.87L73.6612 56.41C72.0712 57.09 68.5312 59.41 68.6812 66.08C68.7912 71.18 69.8012 78.28 70.7612 78.99C70.8412 79.05 70.9312 79.07 71.0112 79.05C75.3311 77.85 81.7311 77.77 84.9811 79.7C85.431 79.97 85.671 80.28 85.641 80.58C85.621 80.75 85.521 80.88 85.3711 80.94C85.2111 81 85.0411 80.95 84.9011 80.81C83.4811 79.39 79.4811 79.23 78.2911 79.21C73.8112 79.14 64.6113 80.51 61.8913 86.27C60.3413 89.56 63.4813 96.2 65.1712 98.31C65.2712 98.45 65.5012 98.44 65.6712 98.37C65.8012 98.31 65.8712 98.22 65.8512 98.11C65.1912 94.82 66.5012 91.57 69.5212 88.97C73.2012 85.81 78.5611 84.36 82.0111 85.61C82.4711 85.78 82.7711 86.06 82.8211 86.38C82.8411 86.53 82.8011 86.66 82.7111 86.73C82.6311 86.8 82.5111 86.8 82.3811 86.75C77.9011 84.82 73.3112 87.76 73.2712 87.79C75.2112 99.43 89.381 99.14 99.7309 98.93L103.271 98.88C103.271 98.9 107.231 102.81 106.691 106.1C106.481 107.42 105.571 108.47 103.991 109.24C102.411 110.01 96.1009 109.61 95.441 109.09C95.091 108.81 94.951 107.98 95.081 106.97C95.291 105.41 96.2209 103.29 98.1809 102.44C98.3909 102.38 98.5009 102.29 98.4709 102.18C98.4209 101.93 97.7609 101.76 97.3109 101.81C93.711 102.26 91.111 104.08 90.191 106.8C89.991 107.4 89.901 107.69 89.891 108.34C89.791 109.48 89.521 109.51 88.021 109.67L87.211 109.76C84.3611 110.11 82.7411 111.47 82.3911 113.79C82.1211 115.63 82.6911 117.49 83.9511 118.9C85.0011 120.07 86.361 120.7 87.671 120.65C87.741 120.65 87.871 120.57 87.901 120.45C87.931 120.34 87.891 120.17 87.561 119.98C85.961 119.06 85.541 117.56 85.831 116.48C86.151 115.3 87.291 114.57 88.791 114.59C88.821 114.59 89.431 114.58 89.461 115.05L89.471 115.5L89.571 116.81C90.181 120.32 92.861 123.4 96.0909 124.28C96.2109 124.31 96.4609 124.22 96.5209 124.05C96.5709 123.91 96.5209 123.7 95.9709 123.47C94.261 122.2 93.641 119.69 93.621 117.76C93.611 116.48 93.881 115.41 94.281 115.11C95.001 114.55 97.6509 114.2 98.9609 115.52C100.261 116.82 100.851 118.01 100.611 118.87C100.461 119.44 99.9409 119.86 99.1009 120.07C99.0009 120.09 98.9409 120.27 98.9709 120.41C98.9809 120.48 99.0509 120.69 99.3709 120.64C102.831 120.13 104.031 117.41 104.011 115.24C104.011 115.22 103.971 115.11 104.041 115.02C104.111 114.93 104.261 114.88 104.471 114.88L107.021 114.91C107.451 114.92 107.921 114.92 108.401 114.93L108.401 85.69L98.6809 85.67C96.4309 85.67 95.5709 86.66 95.5109 87.57C95.4309 88.78 96.7109 90.24 99.2209 90.55C99.3709 90.57 99.7709 90.81 99.7609 90.96C99.7609 91 99.7109 91.12 99.1709 91.13C97.5109 91.15 94.041 91.21 92.781 89.16C92.011 87.91 91.961 86.3 92.651 85.06C93.541 83.46 95.5609 82.58 98.3209 82.58L108.391 82.58L108.391 78.68C103.341 79.42 98.0509 79.01 94.721 77.93C88.451 75.89 83.2211 70.16 85.361 63.17C85.661 62.2 86.341 61.19 87.441 60.09C88.811 58.73 90.181 58.69 90.621 58.68C90.811 58.71 90.931 58.68 90.981 58.58C91.091 58.36 90.701 57.94 90.691 57.92C88.521 55.33 79.4511 54.56 77.6511 55.33C77.6011 55.35 77.5411 55.27 77.5211 55.21C76.7811 53.88 76.5211 45.32 79.7611 43.07C81.1111 42.13 82.5311 41.79 83.5511 42.15C84.3811 42.44 84.9711 43.17 85.311 44.31C85.711 45.65 85.311 47.21 84.4211 47.79C83.7611 48.23 82.9311 48.08 82.0711 47.37C81.8311 47.17 81.7311 46.89 81.6411 46.63L81.5311 46.35C81.4411 46.17 81.2811 45.95 81.1311 45.97C81.0811 45.97 81.0111 46 80.9711 46.11C80.8511 48.84 81.9311 50.82 83.9411 51.55C87.421 52.82 91.211 51.49 93.601 48.16C95.8109 45.05 96.7409 39.83 94.571 37.99C94.421 37.86 94.301 37.82 94.221 37.88C94.031 37.99 94.121 38.47 94.141 38.57C94.161 41.48 92.271 43.57 90.431 43.91C88.861 44.2 87.531 43.23 86.791 41.26C86.801 41.26 86.851 40.83 87.331 40.87C88.921 41.01 90.081 40.43 90.661 39.19C91.381 37.64 90.781 35.47 89.251 34.15C89.191 34.13 88.881 34.04 88.751 34.15C88.721 34.18 88.681 34.22 88.691 34.31C88.921 36.21 88.411 37.42 87.311 37.64C86.301 37.84 85.0911 37.11 84.8211 36.13C84.5311 35.09 85.381 34.13 87.141 33.49C87.231 33.46 87.261 33.4 87.271 33.36C87.311 33.21 87.151 33.04 87.131 33.02C84.8111 32.25 82.3511 33.08 81.4911 34.9C80.9311 36.11 81.4511 38.26 82.7811 38.88C82.7811 38.89 82.8311 38.96 82.7411 39.08C82.4811 39.45 81.2611 39.92 80.1311 39.57C79.3111 39.31 78.3311 38.54 78.3311 36.31L78.3311 22.92C78.3311 21.55 79.8411 20.81 81.3311 20.69C82.8111 20.57 84.5011 21.04 84.7211 22.35C85.0011 24.03 84.7811 24.47 84.2411 24.72C83.2111 25.2 82.3211 24.41 82.3011 24.41C82.2911 24.42 82.2911 24.44 82.2811 24.46L82.2711 24.45C82.2611 24.47 82.2611 24.49 82.2511 24.52C82.0911 24.84 82.1111 25.17 82.2811 25.49C82.6611 26.19 83.6411 26.77 84.7911 26.97C85.921 27.16 86.781 27.03 87.331 26.57C87.751 26.21 87.981 25.65 87.981 24.95L87.981 22.78C87.981 21.77 88.531 21.28 89.051 21.26C89.511 21.24 90.011 21.58 90.091 22.38L90.121 25.26L90.091 30.01C90.091 33.44 92.761 35 95.241 35C97.7309 35 100.251 33.4 100.251 30.35L100.251 23.3C100.251 22 100.781 21.16 101.671 21.08C102.561 20.99 103.681 21.75 103.951 23.11C104.251 24.66 104.131 24.9 103.711 25.7L103.471 26.16L103.301 26.51C102.901 27.33 102.721 27.7 102.851 27.89C102.951 28.03 103.221 28.03 103.741 27.97C105.441 27.76 106.971 27.38 108.361 26.82L108.361 20.2C108.331 20.2 108.301 20.21 108.271 20.22C107.711 20.29 107.081 20.34 106.541 19.81ZM80.2911 63.1C80.2911 65.16 78.5311 66.84 76.3611 66.84C74.2012 66.84 72.4412 65.16 72.4412 63.1C72.4412 61.05 74.2012 59.38 76.3611 59.38C78.5311 59.38 80.2911 61.05 80.2911 63.1ZM82.3611 24.47L82.3611 24.47L82.3711 24.48C82.3711 24.48 82.3611 24.47 82.3611 24.47ZM73.8612 63.1C73.8612 64.42 74.9812 65.49 76.3611 65.49C77.7511 65.49 78.8811 64.42 78.8811 63.1C78.8811 61.79 77.7511 60.72 76.3611 60.72C74.9912 60.72 73.8612 61.79 73.8612 63.1ZM100.421 8.13002C100.031 8.64002 99.7109 9.22002 99.8709 9.37002C99.9609 9.45002 100.121 9.38002 100.381 9.16002C102.561 7.29002 105.151 6.80002 108.051 7.71001C108.171 7.75001 108.281 7.81001 108.411 7.85001L108.411 4.99002C103.341 4.87001 101.031 7.34001 100.421 8.13002ZM96.0109 51.97C94.931 53.4 94.391 56.77 94.391 61.97C94.391 70.21 100.751 71.35 107.631 71.35C107.901 71.35 108.161 71.34 108.421 71.33L108.421 65.71C108.171 65.72 107.911 65.73 107.631 65.73C101.811 65.73 99.6109 65.29 99.6109 60.62C99.6109 55.09 102.141 52.85 105.931 51.2L108.361 50.11C108.381 50.1 108.401 50.09 108.421 50.08L108.421 44.09C107.791 44.37 107.161 44.65 106.541 44.92C102.731 46.56 98.8009 48.27 96.0109 51.97ZM68.6112 76.47L68.6712 76.47L68.7612 76.41L67.8312 70.17C67.8312 69.84 67.8412 69.6 67.6712 69.48C67.5012 69.36 67.1712 69.39 66.5412 69.58L66.5412 69.58C57.7213 72.47 57.6813 75.8 58.4113 81.94C58.4613 82.34 59.0213 83.07 59.2213 83.07L59.2713 83.07L59.3213 82.98C59.4313 82.44 59.7613 81.69 59.9013 81.43C62.4913 76.88 66.8612 76.45 68.6112 76.47ZM68.6612 76.42L68.6612 76.42C68.5612 76.42 68.4512 76.42 68.3412 76.42C68.4912 76.42 68.6012 76.42 68.6612 76.42ZM103.541 60.05C103.451 60.42 103.611 60.82 103.881 60.93C103.991 60.97 104.271 61.01 104.541 60.51C104.541 60.5 104.801 59.89 104.801 59.89C105.391 58.4 105.921 57.1 108.421 56.82L108.421 54.04C106.011 54.85 103.911 56.78 103.541 60.05Z" fill="#750e6d" fill-rule="nonzero" opacity="1" stroke="#000000" stroke-linecap="round" stroke-linejoin="miter" stroke-width="0"/>
<g opacity="1">
<path d="M215.38 147.79C214.96 142.56 210.52 138.9 189.58 143.76C189.49 141.37 189.4 139.24 189.35 138.22C189.17 134.19 184.89 131.98 176.2 132.26C171.92 132.4 169.64 132.57 168.03 132.8C162.2 128.29 160.46 121.12 160.79 114.7L169.22 104.97C171.47 103.23 163.94 95.56 156.63 97.72L142.31 116.58C142.53 116.39 142.76 116.23 142.98 116.08C139.511 120.49 139.761 128.88 144.75 137.21C132.951 139.16 119.531 141.05 109.991 141.05C109.441 141.05 108.881 141.04 108.311 141.03C107.741 141.04 107.171 141.05 106.621 141.05C97.0809 141.05 83.6611 139.16 71.8612 137.21C76.8511 128.88 77.1111 120.49 73.6312 116.08C73.8612 116.24 74.0812 116.4 74.3012 116.58L59.9813 97.72C52.6714 95.56 45.1514 103.23 47.3914 104.97L55.8213 114.7C56.1513 121.13 54.4014 128.29 48.5814 132.8C46.9714 132.57 44.6915 132.41 40.4115 132.26C31.7316 131.98 27.4416 134.19 27.2616 138.22C27.2116 139.25 27.1216 141.37 27.0316 143.76C6.08183 138.9 1.65188 142.56 1.23188 147.79C0.891887 152.07 0.741888 160.43 1.23188 163.52C1.72188 166.61 6.33183 168.89 11.2918 169.74C22.7517 171.7 44.5315 169.18 61.2713 154.36C71.8212 156.82 84.6711 159.91 106.611 159.91C107.191 159.91 107.731 159.9 108.301 159.89C108.861 159.9 109.411 159.91 109.981 159.91C131.931 159.91 144.78 156.81 155.33 154.36C172.06 169.18 193.84 171.7 205.31 169.74C210.27 168.89 214.88 166.61 215.37 163.52C215.87 160.44 215.72 152.07 215.38 147.79Z" fill="#f8e3b2" fill-rule="nonzero" opacity="1" stroke="#000000" stroke-linecap="round" stroke-linejoin="miter" stroke-width="0"/>
<path d="M48.3814 140.28C47.9714 141.27 46.8214 147.63 46.6914 148.99C47.0314 148.99 47.5614 149.07 47.6114 148.96C48.8514 146.04 49.4814 142.97 49.7314 139.81C49.2114 139.81 48.6214 139.67 48.3814 140.28ZM54.3014 140.31C54.6614 141.74 54.2414 148.93 55.3314 151C55.5914 151.44 56.2013 150.9 56.2713 150.52C56.7513 147.05 56.3413 143.8 55.6614 140.34C55.6414 140.24 54.8014 140.31 54.3014 140.31ZM56.3013 138.15C56.3813 138.13 56.4513 137.45 56.2713 137.31C53.8614 135.24 50.9314 136.3 48.2014 136.32C47.4914 136.34 47.7414 137.2 47.7014 137.75C48.0414 137.75 48.3814 137.78 48.7214 137.75C51.3414 137.4 53.7114 138.72 56.3013 138.15ZM216.31 147.73C216.13 145.45 215.25 143.77 213.64 142.59C210 139.95 202.6 139.99 190.45 142.72C190.4 141.48 190.34 140.13 190.28 138.63L190.26 138.18C190.12 134.9 187.56 131.06 176.24 131.42C172.27 131.55 169.99 131.71 168.37 131.91C165.36 129.49 163.68 126.46 162.78 123.71C161.86 120.9 161.55 117.89 161.67 115.02L169.89 105.54C170.31 105.17 170.98 104.25 170.09 102.5C168.6 99.58 162.59 95.09 156.45 96.91C156.28 96.96 156.12 97.06 156.02 97.21L141.69 116.07C141.53 116.28 141.5 116.55 141.56 116.79C141.09 117.59 140.71 118.47 140.43 119.45C140.031 120.87 139.831 122.37 139.831 123.94C139.831 127.94 141.12 132.32 143.48 136.57C131.961 138.45 119.211 140.2 110.011 140.2C109.471 140.2 108.891 140.18 108.321 140.17C107.751 140.18 107.181 140.2 106.631 140.2C97.4309 140.2 84.681 138.45 73.1612 136.57C75.5211 132.32 76.8211 127.93 76.8211 123.94C76.8211 122.37 76.6211 120.86 76.2211 119.45C75.9411 118.47 75.5611 117.59 75.0911 116.79C75.1611 116.55 75.1211 116.28 74.9611 116.07L60.6213 97.21C60.5113 97.07 60.3613 96.96 60.1913 96.91C54.0513 95.09 48.0414 99.59 46.5514 102.5C45.6514 104.24 46.3314 105.16 46.7514 105.54L54.9713 115.02C55.0813 117.89 54.7813 120.9 53.8513 123.71C52.9514 126.46 51.2714 129.49 48.2614 131.91C46.6514 131.7 44.3714 131.55 40.3915 131.42C29.0716 131.05 26.5116 134.89 26.3716 138.18L26.3516 138.63C26.2816 140.13 26.2316 141.49 26.1816 142.72C14.0217 139.99 6.62181 139.94 2.98185 142.59C1.37186 143.77 0.501872 145.45 0.321873 147.73C-0.0181234 151.95-0.188122 160.45 0.321873 163.66C0.931867 167.51 6.49181 169.79 11.0718 170.58C20.8617 172.26 43.4414 171.04 61.4613 155.29C61.5213 155.31 61.5813 155.32 61.6413 155.33C72.0312 157.75 84.971 160.76 106.621 160.76C107.191 160.76 107.741 160.75 108.311 160.74C108.871 160.75 109.421 160.76 110.001 160.76C131.651 160.76 144.58 157.75 154.97 155.33C155.03 155.32 155.09 155.3 155.15 155.29C173.17 171.04 195.76 172.26 205.54 170.58C210.12 169.79 215.69 167.52 216.3 163.66C216.82 160.45 216.65 151.94 216.31 147.73ZM176.29 133.1C181.78 132.92 188.37 133.67 188.58 138.25L188.6 138.7C188.88 144.96 188.97 148.72 188.97 150.96C188.97 151.82 188.95 152.41 188.93 152.89C187.44 151.78 185.51 151.48 183.18 151.15C175.91 150.13 170.06 150.57 164.1 151.65L164 151.06C164.21 150.59 162.82 143.52 163.03 143.2C163.55 142.44 165.98 143.25 165.94 141.75C165.91 140.44 163.83 141.04 162.84 140.94C162.47 140.91 162.48 140.84 162.42 140.52C162.31 139.95 161.75 137.25 161.27 136.81C160.86 136.4 160.21 136.78 160.08 137.29C159.84 138.13 161.19 141.44 160.66 141.46C159.31 141.52 157.92 142.69 157.83 142.38C157.59 141.72 157.57 140.7 157.09 140.03C156.45 139.12 154.19 139.75 154.16 139.33C154.11 138.33 154.8 138.42 155.21 138.19C155.48 138.05 155.77 137.85 155.82 137.51C155.9 137.1 155.91 136.52 155.67 136.18C156.43 136.05 157.18 135.91 157.89 135.79L159.35 135.53C162.29 135.01 163.87 134.6 165.14 134.28C167.48 133.67 168.76 133.34 176.29 133.1ZM188.3 156.57C187.38 157.59 184.63 157.39 182.2 157.21C179.79 157.03 177.5 156.87 176.13 157.73C176.11 157.35 176.1 156.95 176.12 156.53C176.18 154.3 176.69 152.75 177.17 152.29C179.01 152.36 180.92 152.53 182.94 152.81C185.88 153.22 187.5 153.51 188.62 154.85C188.73 155.63 188.63 156.2 188.3 156.57ZM155.59 142.56C155.96 142.61 156.23 142.67 156.23 143.06C156.24 143.52 155.55 143.6 155.44 143.64C155.28 143.7 154.84 143.69 154.78 143.51C154.55 142.91 154.94 142.46 155.59 142.56ZM154.3 141.25C154.12 141.02 154.19 140.55 154.29 140.52C154.39 140.49 154.95 140.16 155.2 140.34C155.36 140.47 155.53 140.73 155.45 140.94C155.28 141.31 154.58 141.6 154.3 141.25ZM155.47 144.62C155.58 144.22 157.35 144.78 157.5 143.53C157.53 143.27 157.85 143.76 158.4 143.98C158.93 144.21 160.47 143.42 161.43 143.56C161.49 143.58 162.82 150.77 162.55 151.84L159.54 152.34C159.44 148.73 157.79 145.07 156.93 145.05C156.15 145.04 155.26 145.41 155.47 144.62ZM153.29 136.92C153.27 136.92 153.25 136.79 153.24 136.62C153.63 136.55 154.03 136.48 154.41 136.41C154.38 136.58 154.36 136.75 154.2 136.86C153.9 137.07 153.46 136.87 153.29 136.92ZM157.15 98.49C162.27 97.14 167.37 100.9 168.59 103.28C168.75 103.6 168.84 103.89 168.84 104.08C168.84 104.18 168.82 104.26 168.76 104.3C168.72 104.33 168.68 104.37 168.64 104.41C168.64 104.41 156.91 117.94 155.69 119.34C153.39 116.2 150.81 114.28 148.15 113.89C147.18 113.75 146.22 113.83 145.28 114.08C148.46 109.92 156.82 98.92 157.15 98.49ZM141.53 123.78C141.53 122.35 141.7 121.05 142.03 119.9C142.39 118.63 142.94 117.55 143.65 116.65C145.04 115.72 146.47 115.34 147.92 115.56C150.34 115.91 152.78 117.84 154.96 121.13C155.11 121.35 155.34 121.48 155.61 121.5C155.87 121.52 156.13 121.41 156.3 121.21L159.99 116.96C160.06 119.39 160.41 121.86 161.19 124.23C162.07 126.91 163.6 129.82 166.22 132.29C165.73 132.4 165.26 132.52 164.73 132.66C163.49 132.98 161.95 133.38 159.08 133.89L157.62 134.15C155.95 134.44 154.17 134.76 152.31 135.08C152.03 135.07 151.67 135.11 151.19 135.27L151.19 135.27C149.28 135.6 147.3 135.94 145.27 136.28C142.681 131.79 141.53 127.4 141.53 123.78ZM151.66 141.18L151.85 141.05C152.08 140.99 152.38 140.68 152.62 140.94C152.88 141.21 152.86 141.7 152.65 141.93C152.37 142.23 151.69 142.07 151.49 141.77C151.37 141.56 151.6 141.32 151.66 141.18ZM150.84 137.88C150.75 137.84 150.78 137.17 150.56 137.09C150.97 137.02 151.37 136.95 151.77 136.88C151.83 137.23 151.86 137.57 151.7 137.79C151.53 138.03 151.09 138.03 150.84 137.88ZM151.8 143.25C152.08 143.06 152.8 142.99 152.94 143.35C153.02 143.51 153.15 143.75 153.02 143.92C152.86 144.12 152.31 144.29 152.05 144.23C152 144.21 151.08 143.76 151.8 143.25ZM121.581 145.69C121.971 145.84 122.531 145.84 122.771 145.54C123.161 145.09 122.561 143.86 123.241 143.81C125.251 143.65 126.121 144.75 126.661 145.43C126.801 145.61 123.791 148.08 122.901 149.52C121.891 148.79 120.171 148.48 118.871 148.06C118.871 148.06 118.661 147.23 119.291 146.52C120.081 147.31 121.011 148.29 122.371 148.29C123.791 148.27 125.611 145.59 124.971 145.13C123.971 144.42 123.261 147.81 121.451 146.62C120.811 146.19 119.771 144.86 120.951 144.67C121.381 144.58 121.151 145.51 121.581 145.69ZM89.211 140.6C91.161 140.83 93.081 141.05 94.951 141.23C93.641 142.57 95.351 145.57 93.361 146.67C93.041 145.89 92.391 146.05 91.851 146.19C91.081 146.38 91.171 147.38 91.431 147.66C92.191 148.44 94.421 148.16 93.821 149.92C93.401 151.15 92.561 152.3 91.431 151.42C89.171 149.66 89.251 146.67 90.041 143.86C90.121 143.6 90.041 142.37 89.361 141.7C89.121 141.45 89.061 140.85 89.211 140.6ZM87.761 142.32C88.101 142.68 88.521 142.99 88.741 143.43C89.281 144.5 88.271 144.95 87.761 145.59C87.301 144.93 86.661 144.26 86.841 143.43C86.941 142.99 87.421 142.68 87.761 142.32ZM47.9914 104.41C47.9514 104.37 47.9114 104.33 47.8714 104.3C47.8214 104.26 47.7914 104.18 47.7914 104.08C47.7914 103.88 47.8814 103.59 48.0414 103.28C49.2614 100.9 54.3714 97.14 59.4813 98.49C59.8113 98.92 68.1712 109.92 71.3412 114.09C70.4012 113.84 69.4412 113.76 68.4712 113.9C65.8213 114.29 63.2313 116.21 60.9313 119.35C59.7213 117.95 47.9914 104.41 47.9914 104.41ZM55.4513 124.24C56.2313 121.87 56.5813 119.4 56.6513 116.97L60.3413 121.22C60.5113 121.42 60.7713 121.52 61.0313 121.51C61.2913 121.49 61.5313 121.36 61.6713 121.14C63.8613 117.84 66.3012 115.92 68.7212 115.57C70.1612 115.36 71.6012 115.73 72.9912 116.66C73.7012 117.56 74.2512 118.65 74.6112 119.91C74.9412 121.05 75.1112 122.36 75.1112 123.79C75.1112 127.41 73.9612 131.8 71.3812 136.28C66.9512 135.55 62.7313 134.8 59.0413 134.15L57.5813 133.89C54.7014 133.39 53.1614 132.98 51.9214 132.66C51.4014 132.53 50.9314 132.4 50.4414 132.29C53.0414 129.82 54.5714 126.91 55.4513 124.24ZM2.00186 147.86C2.14186 146.07 2.77186 144.82 3.98184 143.95C7.14181 141.65 14.5917 141.82 26.1316 144.43C25.9616 149.3 25.9616 151.94 26.0716 153.4C26.1816 155.13 26.4216 156.99 27.0916 157.69C28.6116 159.28 31.6116 159.1 34.5615 158.88C36.6715 158.73 39.0715 158.55 39.8015 159.28C39.9215 159.4 40.0715 159.61 40.0315 160.14C39.9715 160.95 39.6815 161.51 39.1315 161.89C36.7615 163.56 30.1616 161.76 24.8516 160.31C22.4717 159.66 20.2217 159.05 18.3817 158.73C12.3618 157.69 5.67183 156.8 2.35186 159.41C2.12186 159.59 1.94186 159.79 1.75187 160C1.61188 156.21 1.76188 150.92 2.00186 147.86ZM28.0116 154.85C29.1216 153.51 30.7516 153.22 33.6916 152.81C35.7115 152.52 37.6315 152.36 39.4715 152.29C39.9515 152.75 40.4615 154.31 40.5215 156.53C40.5315 156.95 40.5215 157.34 40.5015 157.73C39.1315 156.88 36.8415 157.04 34.4316 157.21C32.0116 157.39 29.2616 157.59 28.3316 156.57C28.0016 156.2 27.9116 155.63 28.0116 154.85ZM11.3718 168.92C6.29185 168.05 2.47189 165.82 2.01189 163.48C2.11189 162.28 2.55188 161.38 3.38188 160.73C6.03185 158.65 12.0118 159.34 18.0917 160.39C19.8517 160.69 22.0617 161.3 24.4017 161.94C30.6316 163.64 37.0815 165.39 40.0915 163.27C40.1715 163.21 40.2215 163.15 40.2915 163.09C40.3115 163.07 40.3315 163.07 40.3515 163.06C41.8115 162.03 42.2615 158.99 42.1915 156.49C42.1715 155.54 42.0215 153.66 41.3915 152.26C47.6814 152.25 53.2014 153.38 59.4413 154.82C42.0615 169.4 20.7017 170.52 11.3718 168.92ZM85.441 157.97C75.7311 156.88 68.3912 155.18 62.0313 153.69C58.6013 152.89 55.4313 152.15 52.2814 151.6C52.2414 147.77 53.2114 143.66 52.6114 139.83C52.6014 139.75 51.7614 139.82 51.2614 139.82C51.4614 143.52 50.1814 147.53 50.4314 151.3C45.1814 150.49 39.8715 150.25 33.4616 151.16C31.1316 151.49 29.2016 151.79 27.7116 152.9C27.6916 152.43 27.6716 151.84 27.6716 150.97C27.6716 148.73 27.7616 144.97 28.0416 138.71L28.0616 138.26C28.2616 133.68 34.8515 132.93 40.3515 133.11C47.8814 133.35 49.1614 133.68 51.4914 134.29C52.7514 134.62 54.3114 135.02 57.2013 135.53C57.3613 135.62 57.5313 135.71 57.6713 135.78C59.0413 136.26 60.1513 139.01 60.1813 140.82C60.2813 144.53 58.3613 148.36 59.9713 152.02C60.0313 152.15 60.5713 152.06 60.9013 152.06C60.0813 147.33 63.5913 142.21 60.9813 137.7C60.8013 137.37 60.8813 136.48 61.2513 136.25C68.8612 137.59 78.1611 139.18 87.091 140.34C86.571 140.9 85.551 142.25 85.331 142.9C84.6311 144.92 86.381 146.91 84.8811 149C84.2211 149.92 85.611 151.33 85.431 152.05C85.061 153.55 82.2711 154.76 83.4611 156.24C84.4211 157.42 84.9411 154.25 85.621 154.58C86.691 155.1 85.9211 157.39 85.441 157.97ZM87.3411 148C87.941 147.78 88.421 149.19 88.651 149.99C88.791 150.47 88.211 151.51 87.811 151.38C86.261 150.94 85.661 148.64 87.3411 148ZM120.621 158.73C120.621 158.76 120.651 158.78 120.661 158.81C117.351 158.98 113.821 159.08 110.001 159.08C109.421 159.08 108.881 159.07 108.311 159.07C107.751 159.07 107.201 159.08 106.621 159.08C99.3709 159.08 93.121 158.73 87.611 158.19C87.431 157.71 87.1311 156.07 87.771 156.01C88.591 155.95 89.671 157.03 90.131 156.34C91.161 154.72 89.081 153.54 87.761 152.66C88.101 152.29 88.591 151.64 88.711 151.71C90.931 153.08 94.791 153.51 95.191 150.45C95.561 147.58 97.341 144.41 95.771 141.49C95.761 141.41 95.751 141.36 95.731 141.3C99.6609 141.66 103.361 141.88 106.621 141.88C107.171 141.88 107.741 141.87 108.311 141.85C108.871 141.86 109.451 141.88 110.001 141.88C113.251 141.88 116.941 141.66 120.851 141.3L120.881 141.54C120.881 141.9 121.441 142.99 119.951 143.14C116.671 143.45 115.631 151.39 117.391 151.45C118.601 151.5 118.001 150.16 118.271 149.55C118.401 149.27 120.991 150.14 121.951 150.94C121.081 152.52 120.761 154.37 120.631 156.21C120.601 156.9 120.671 158.55 120.621 158.73ZM122.081 158.73L122.081 158.35C122.311 156.53 122.511 153.73 123.081 152.74C123.791 151.51 124.851 153.73 124.941 154.02C125.301 155.07 126.171 157.74 126.211 158.44C124.881 158.56 123.511 158.65 122.081 158.73ZM154.6 153.69C147.49 155.35 139.171 157.29 127.641 158.33C127.751 158.2 127.801 158.05 127.741 157.89C127.741 157.89 127.151 152.9 124.291 150.42C125.191 149.38 126.891 147.17 127.581 147.25C127.981 147.29 127.661 149.27 128.031 149.55C128.251 149.73 129.411 149.75 129.441 149.43C129.651 147.32 128.411 141.76 122.971 142.35L123.101 141.37L123.111 141.09C131.661 140.2 141.061 138.72 149.31 137.3C149.07 137.41 148.89 137.57 148.91 137.84C148.94 138.94 150.12 139.43 151.02 139.27C151.28 139.22 151.24 139.85 151.04 140.09C150.69 140.46 149.46 140.69 149.56 142.13C149.85 146.96 153.13 144.61 153.32 145.11C153.67 146.07 151.31 145.55 151.31 146.42C151.32 147.65 154.13 146.34 154.2 146.62C154.62 147.98 150.95 147.09 150.98 148.4C151.01 149.76 154.68 148.33 154.73 148.61C155.05 149.95 152.64 149.05 152.69 150.36C152.72 150.92 153.6 150.85 154.07 150.72C155.07 150.43 156.07 150.11 156.87 149.43C157.22 149.79 157.37 150.26 157.55 150.71C157.78 151.32 157.65 151.99 157.78 152.74C157.77 152.83 157.78 152.9 157.79 152.97C156.75 153.19 155.69 153.44 154.6 153.69ZM205.27 168.92C195.93 170.52 174.57 169.39 157.19 154.81C163.43 153.37 168.95 152.24 175.24 152.25C174.61 153.66 174.47 155.53 174.44 156.48C174.37 158.98 174.82 162.02 176.28 163.05C176.3 163.06 176.32 163.06 176.34 163.08C176.41 163.14 176.47 163.2 176.54 163.26C179.55 165.38 186 163.63 192.23 161.93C194.58 161.29 196.79 160.69 198.54 160.38C204.62 159.33 210.6 158.64 213.24 160.72C214.07 161.37 214.51 162.27 214.61 163.47C214.17 165.82 210.35 168.06 205.27 168.92ZM214.9 160C214.71 159.79 214.52 159.59 214.3 159.41C210.98 156.8 204.28 157.69 198.27 158.73C196.44 159.05 194.19 159.66 191.8 160.31C186.49 161.76 179.88 163.55 177.51 161.89C176.96 161.51 176.68 160.95 176.62 160.14C176.58 159.61 176.73 159.39 176.85 159.28C177.57 158.56 179.97 158.73 182.09 158.88C185.03 159.1 188.04 159.28 189.55 157.69C190.22 156.99 190.47 155.13 190.57 153.4C190.68 151.94 190.68 149.29 190.51 144.43C202.04 141.81 209.49 141.65 212.66 143.95C213.87 144.83 214.49 146.07 214.64 147.86C214.88 150.92 215.03 156.21 214.9 160Z" fill="#750e6d" fill-rule="nonzero" opacity="1" stroke="#000000" stroke-linecap="round" stroke-linejoin="miter" stroke-width="0"/>
</g>
</g>
</g>
</svg>
